<?xml version="1.0" encoding="UTF-8"?>
<svg xmlns="http://www.w3.org/2000/svg" version="1.1" xmlns:xlink="http://www.w3.org/1999/xlink" viewBox="0 0 841.8898315 595.2755737">
  <defs>
    <style>
      .cls-1 {
        fill: url(#_新規グラデーションスウォッチ_5-3);
      }

      .cls-2 {
        fill: #fff;
      }

      .cls-3 {
        fill: url(#_新規グラデーションスウォッチ_5-2);
      }

      .cls-4 {
        fill: url(#_新規グラデーションスウォッチ_5);
      }

      .cls-5 {
        fill: url(#_名称未設定グラデーション_3);
      }
    </style>
    <linearGradient id="_新規グラデーションスウォッチ_5" data-name="新規グラデーションスウォッチ 5" x1="180.6732057" y1="368.5039527" x2="180.6732057" y2="226.7716693" gradientUnits="userSpaceOnUse">
      <stop offset="0" stop-color="#54aaea"/>
      <stop offset=".2810462" stop-color="#4c9be3"/>
      <stop offset=".8176467" stop-color="#3a74d2"/>
      <stop offset="1" stop-color="#36c"/>
    </linearGradient>
    <linearGradient id="_新規グラデーションスウォッチ_5-2" data-name="新規グラデーションスウォッチ 5" x1="231.3476747" y1="368.5039368" x2="231.3476747" y2="226.7716533" xlink:href="#_新規グラデーションスウォッチ_5"/>
    <linearGradient id="_新規グラデーションスウォッチ_5-3" data-name="新規グラデーションスウォッチ 5" x1="229.2431215" x2="229.2431215" y2="226.7716693" xlink:href="#_新規グラデーションスウォッチ_5"/>
    <linearGradient id="_名称未設定グラデーション_3" data-name="名称未設定グラデーション 3" x1="236.9788393" y1="333.5829163" x2="236.9788393" y2="284.0077209" gradientUnits="userSpaceOnUse">
      <stop offset="0" stop-color="#fff"/>
      <stop offset=".2432568" stop-color="#fcfdfe"/>
      <stop offset=".389587" stop-color="#f4f6fc"/>
      <stop offset=".5102479" stop-color="#e5ecf8"/>
      <stop offset=".616973" stop-color="#d1dcf3"/>
      <stop offset=".714546" stop-color="#b7c9ed"/>
      <stop offset=".8054243" stop-color="#96b0e4"/>
      <stop offset=".8910825" stop-color="#7094db"/>
      <stop offset=".9705729" stop-color="#4573d0"/>
      <stop offset="1" stop-color="#36c"/>
    </linearGradient>
  </defs>
  <!-- Generator: Adobe Illustrator 28.7.10, SVG Export Plug-In . SVG Version: 1.2.0 Build 236)  -->
  <g>
    <g id="_レイヤー_1" data-name="レイヤー_1">
      <g>
        <g>
          <path class="cls-4" d="M159.7403749,305.5096741h25.5808716c9.2398682,0,16.7302246-7.4903564,16.7302246-16.7301636s-7.4903564-16.7301636-16.7302246-16.7301636h-21.2442627c-3.0766602,7.9395142-4.7820435,16.5623779-4.7820435,25.5884399,0,2.6621094.1594849,5.2860107.4454346,7.8718872Z"/>
          <path class="cls-3" d="M251.7054018,291.6116638c-1.4707031-.6091919-2.6404419-1.7789307-3.2496338-3.2496338-.6105347-1.4862671-.6105347-3.1450195-.6105347-4.6437378v-4.276001c-4.8676147,0-9.692749,1.6074829-13.5872192,4.5263672l-.1899414.142395-3.3520508,2.5128784c-1.4292603,1.071228-2.9574585,1.9986572-4.5483398,2.7999268-4.2564697,2.1438599-8.9988403,3.305542-13.7773438,3.305542h-.2897339c-1.9124756,13.0770874-13.1714478,23.1193848-26.7793579,23.1193848h-23.6531372c8.0390015,30.3117065,35.6520386,52.6551514,68.492981,52.6551514,20.2576294,0,38.515625-8.5137329,51.4307861-22.1416016h-25.2979126c-1.4987183,0-3.1575317,0-4.6437988-.6105957-1.4707031-.6091919-2.6404419-1.7788696-3.2496338-3.2496338-.6105347-1.4862061-.6105347-3.1450195-.6105347-4.6437378v-16.4522705c0-1.4987183,0-3.1575317.6105347-4.6437378.6091919-1.4707642,1.7789307-2.6404419,3.2496338-3.2496338,1.4862671-.6105957,3.1450806-.6105957,4.6437988-.6105957h43.0667725c1.0802002-4.918335,1.6665039-10.0216064,1.6665039-15.2643433,0-1.8242188-.0913086-3.6260376-.2266846-5.4155884h-44.451416c-1.4987183,0-3.1574707,0-4.6437378-.6105347Z"/>
          <path class="cls-1" d="M212.1005434,284.82901h.2897949c4.8671875,0,9.6928711-1.6074219,13.5878906-4.5263672l3.5415039-2.6542969c5.2523804-3.937439,11.7606201-6.1064453,18.3255005-6.1064453v-4.2759399c0-1.4987183,0-3.1574707.6105347-4.6437378.6091919-1.4707031,1.7789307-2.6404419,3.2496338-3.2496338,1.4862671-.6105347,3.1450195-.6105347,4.6437378-.6105347h33.0536499c-12.6672363-19.263855-34.4628296-31.9904175-59.2416992-31.9904175-26.0220947,0-48.7545166,14.034668-61.0776367,34.9385986h16.237793c13.6077271,0,24.8665771,10.0419312,26.7792969,23.1187744Z"/>
          <path class="cls-2" d="M251.6501649,313.5127258c-1.4707031.6091919-2.6404419,1.7788696-3.2496338,3.2496338-.6105347,1.4862061-.6105347,3.1450195-.6105347,4.6437378v16.4522705c0,1.4987183,0,3.1575317.6105347,4.6437378.6091919,1.4707642,1.7789307,2.6404419,3.2496338,3.2496338,1.4862671.6105957,3.1450806.6105957,4.6437988.6105957h25.2979126c8.6948853-9.1746826,14.9590454-20.6660767,17.7688599-33.4602051h-43.0667725c-1.4987183,0-3.1575317,0-4.6437988.6105957Z"/>
          <path class="cls-2" d="M256.3491395,258.7620544c-1.4987183,0-3.1574707,0-4.6437378.6105347-1.4707031.6091919-2.6404419,1.7789307-3.2496338,3.2496338-.6105347,1.4862671-.6105347,3.1450195-.6105347,4.6437378v4.2759399c-6.5648804,0-13.0731201,2.1690063-18.3255005,6.1064453l-3.5415039,2.6542969c-3.8950195,2.9189453-8.7207031,4.5263672-13.5878906,4.5263672h-.2897949c-1.9127197-13.0768433-13.1715698-23.1187744-26.7792969-23.1187744h-16.237793c-1.9369507,3.2857056-3.6123047,6.741272-5.0064697,10.3391113h21.2442627c9.2398682,0,16.7302246,7.4903564,16.7302246,16.7301636s-7.4903564,16.7301636-16.7302246,16.7301636h-25.5808716c.3904419,3.531189,1.0379028,6.9838257,1.9277344,10.3391113h23.6531372c13.6079102,0,24.8668823-10.0422974,26.7793579-23.1193848h.2897339c4.7785034,0,9.520874-1.1616821,13.7773438-3.305542,1.5908813-.8012695,3.1190796-1.7286987,4.5483398-2.7999268l3.3520508-2.5128784.1899414-.142395c3.8944702-2.9188843,8.7196045-4.5263672,13.5872192-4.5263672v4.276001c0,1.4987183,0,3.1574707.6105347,4.6437378.6091919,1.4707031,1.7789307,2.6404419,3.2496338,3.2496338,1.4862671.6105347,3.1450195.6105347,4.6437378.6105347h44.451416c-.9303589-12.2970581-4.989624-23.7148438-11.3977661-33.460144h-33.0536499Z"/>
        </g>
        <path class="cls-5" d="M226.167682,289.4238586v22.6893311c0,3.2451172,0,7.2851562,1.5585938,11.078125,1.6430664,3.9677734,4.8623047,7.1875,8.8432617,8.8369141,3.7827148,1.5546875,7.8217773,1.5546875,11.0673828,1.5546875h.1530762v-7.9003906h-.1530762c-2.8144531,0-5.7250977,0-8.0537109-.9570312-2.0488281-.8486328-3.7104492-2.5097656-4.5537109-4.546875-.9614258-2.3408203-.9614258-5.2509766-.9614258-8.0654297v-28.0021362l-3.3520508,2.5128784c-1.4292603,1.071228-2.9574585,1.9986572-4.5483398,2.7999268Z"/>
      </g>
    </g>
  </g>
</svg>