<?xml version="1.0" encoding="UTF-8"?>
<svg xmlns="http://www.w3.org/2000/svg" version="1.1" xmlns:xlink="http://www.w3.org/1999/xlink" viewBox="0 0 841.8898315 595.2755737">
  <defs>
    <style>
      .cls-1 {
        fill: url(#_新規グラデーションスウォッチ_5-3);
      }

      .cls-2 {
        fill: #fff;
      }

      .cls-3 {
        fill: url(#_新規グラデーションスウォッチ_5-2);
      }

      .cls-4 {
        fill: url(#_新規グラデーションスウォッチ_5);
      }

      .cls-5 {
        fill: #3a3a3a;
      }

      .cls-6 {
        fill: url(#_名称未設定グラデーション_3);
      }

      .cls-7 {
        fill: #2080e0;
      }
    </style>
    <linearGradient id="_新規グラデーションスウォッチ_5" data-name="新規グラデーションスウォッチ 5" x1="180.6732057" y1="368.5039527" x2="180.6732057" y2="226.7716693" gradientUnits="userSpaceOnUse">
      <stop offset="0" stop-color="#54aaea"/>
      <stop offset=".2810462" stop-color="#4c9be3"/>
      <stop offset=".8176467" stop-color="#3a74d2"/>
      <stop offset="1" stop-color="#36c"/>
    </linearGradient>
    <linearGradient id="_新規グラデーションスウォッチ_5-2" data-name="新規グラデーションスウォッチ 5" x1="231.3476747" y1="368.5039368" x2="231.3476747" y2="226.7716533" xlink:href="#_新規グラデーションスウォッチ_5"/>
    <linearGradient id="_新規グラデーションスウォッチ_5-3" data-name="新規グラデーションスウォッチ 5" x1="229.2431215" x2="229.2431215" y2="226.7716693" xlink:href="#_新規グラデーションスウォッチ_5"/>
    <linearGradient id="_名称未設定グラデーション_3" data-name="名称未設定グラデーション 3" x1="236.9788393" y1="333.5829163" x2="236.9788393" y2="284.0077209" gradientUnits="userSpaceOnUse">
      <stop offset="0" stop-color="#fff"/>
      <stop offset=".2432568" stop-color="#fcfdfe"/>
      <stop offset=".389587" stop-color="#f4f6fc"/>
      <stop offset=".5102479" stop-color="#e5ecf8"/>
      <stop offset=".616973" stop-color="#d1dcf3"/>
      <stop offset=".714546" stop-color="#b7c9ed"/>
      <stop offset=".8054243" stop-color="#96b0e4"/>
      <stop offset=".8910825" stop-color="#7094db"/>
      <stop offset=".9705729" stop-color="#4573d0"/>
      <stop offset="1" stop-color="#36c"/>
    </linearGradient>
  </defs>
  <!-- Generator: Adobe Illustrator 28.7.10, SVG Export Plug-In . SVG Version: 1.2.0 Build 236)  -->
  <g>
    <g id="_レイヤー_1" data-name="レイヤー_1">
      <g>
        <g>
          <path class="cls-5" d="M382.7862262,302.450811c0,13.2246943-10.6370169,23.8617111-24.1486602,23.8617111-13.1290446,0-24.1499441-10.3494258-24.1499441-23.8617111,0-13.2240523,10.6383007-23.8617111,24.1499441-23.8617111,12.8414535,0,24.1486602,9.966827,24.1486602,23.8617111ZM358.637566,318.2631827c9.0077622,0,14.9495986-6.4207268,14.9495986-15.8123717,0-9.5829443-6.1344196-15.8117298-15.0458902-15.8117298-8.8164629,0-14.8533069,6.5163765-14.8533069,15.8117298,0,9.4872946,6.0368441,15.8123717,14.9495986,15.8123717Z"/>
          <path class="cls-5" d="M429.8572216,301.3294868c0,12.8771302-8.7312792,21.9617255-21.2568658,21.9617255-6.0855444,0-11.8177728-2.8223928-14.552132-7.0556866h-.1760672v30.8696627h-7.9383859v-66.6786605h7.9383859v5.9975108h.1760672c3.175118-4.4985762,8.6438364-7.0562774,14.6419381-7.0562774,12.1710889,0,21.1670597,8.8199036,21.1670597,21.9617255ZM407.6313954,315.8828005c8.2905203,0,13.7592387-5.73341,13.7592387-14.5533137s-5.6459672-14.5527228-13.8478632-14.5527228c-8.0270104,0-13.6706143,5.7328192-13.6706143,14.5527228,0,8.6438364,5.4687184,14.5533137,13.7592387,14.5533137Z"/>
          <path class="cls-5" d="M477.1595491,303.1929015v2.3175578h-35.2278723c0,7.6016145,7.1389723,12.7925217,14.8318732,12.7925217,5.0996208,0,8.8082101-2.5951431,12.0522942-6.5819387l6.3043534,4.8207935c-4.728265,6.0255261-11.0326184,8.9920249-19.4682308,8.9920249-13.07197,0-22.6204075-9.0845534-22.6204075-23.0830497,0-12.9781995,9.3646227-23.0830497,22.7135569-23.0830497,12.9788205,0,21.4144329,8.6212902,21.4144329,23.8251401ZM468.2594316,298.8353712c-.2782063-8.2505555-4.9133219-12.7925217-12.7006142-12.7925217-8.8057261,0-13.6271406,7.508465-13.6271406,12.7925217h26.3277548Z"/>
          <path class="cls-5" d="M519.0059108,295.7763439v28.6453126h-8.3424629v-26.2352264c0-6.7669956-3.7073473-11.0313765-10.0117007-11.0313765-7.6953849,0-12.2373511,5.4697345-12.2373511,14.2760816v22.9905212h-8.3424629v-43.9410699h8.3424629v6.7669956h.1850569c2.3175578-4.9133219,8.0654986-7.8798208,14.4617594-7.8798208,9.8266438,0,15.9446984,6.4894103,15.9446984,16.4085825Z"/>
          <path class="cls-7" d="M553.0783498,259.508968c8.5287618,0,19.7451951,3.8936462,19.7451951,16.501111,0,6.7669956-3.9855536,12.0516732-11.4014902,14.369231v.1850569c8.4356123,1.0196758,14.1835532,7.6941429,14.1835532,15.8521699,0,12.6074648-10.1048501,18.7261403-24.3815527,18.7261403h-24.1021044v-65.6337091h25.9563991ZM549.8342656,286.2074575c7.0445809,0,11.3095828-3.2447051,11.3095828-8.2505555,0-5.7479408-4.2650019-8.4362333-12.2373511-8.4362333h-10.1036081v16.6867888h11.0313765ZM549.9261731,315.1309764c9.2702312,0,13.9984963-3.1521767,13.9984963-9.641587,0-6.6744671-4.4500588-9.2702312-13.3489343-9.2702312h-11.7728459v18.9118182h11.1232839Z"/>
          <path class="cls-7" d="M601.6364384,259.508968c8.4368543,0,23.7319907,2.4100862,23.7319907,18.8186688,0,13.72029-8.0642566,19.6532877-25.5862853,19.6532877h-8.9920249v27.1617527h-11.6796965v-65.6337091h22.5260161ZM598.3923543,287.9686027c6.859524,0,14.7399657-.7414695,14.7399657-9.2702312,0-6.211204-4.5432082-9.1777028-13.6271406-9.1777028h-8.7150606v18.447934h7.6022355Z"/>
          <path class="cls-7" d="M637.0414547,261.5438204l14.916426,23.4019756,14.7381229-23.4019756h13.6659113l-20.7226433,30.1900563,22.9556197,33.0482901h-14.291767l-16.7018497-26.7065653-16.6144932,26.7065653h-13.5761614l22.508067-33.0482901-21.0792494-30.1900563h14.2020171Z"/>
        </g>
        <g>
          <g>
            <path class="cls-4" d="M159.7403749,305.5096741h25.5808716c9.2398682,0,16.7302246-7.4903564,16.7302246-16.7301636s-7.4903564-16.7301636-16.7302246-16.7301636h-21.2442627c-3.0766602,7.9395142-4.7820435,16.5623779-4.7820435,25.5884399,0,2.6621094.1594849,5.2860107.4454346,7.8718872Z"/>
            <path class="cls-3" d="M251.7054018,291.6116638c-1.4707031-.6091919-2.6404419-1.7789307-3.2496338-3.2496338-.6105347-1.4862671-.6105347-3.1450195-.6105347-4.6437378v-4.276001c-4.8676147,0-9.692749,1.6074829-13.5872192,4.5263672l-.1899414.142395-3.3520508,2.5128784c-1.4292603,1.071228-2.9574585,1.9986572-4.5483398,2.7999268-4.2564697,2.1438599-8.9988403,3.305542-13.7773438,3.305542h-.2897339c-1.9124756,13.0770874-13.1714478,23.1193848-26.7793579,23.1193848h-23.6531372c8.0390015,30.3117065,35.6520386,52.6551514,68.492981,52.6551514,20.2576294,0,38.515625-8.5137329,51.4307861-22.1416016h-25.2979126c-1.4987183,0-3.1575317,0-4.6437988-.6105957-1.4707031-.6091919-2.6404419-1.7788696-3.2496338-3.2496338-.6105347-1.4862061-.6105347-3.1450195-.6105347-4.6437378v-16.4522705c0-1.4987183,0-3.1575317.6105347-4.6437378.6091919-1.4707642,1.7789307-2.6404419,3.2496338-3.2496338,1.4862671-.6105957,3.1450806-.6105957,4.6437988-.6105957h43.0667725c1.0802002-4.918335,1.6665039-10.0216064,1.6665039-15.2643433,0-1.8242188-.0913086-3.6260376-.2266846-5.4155884h-44.451416c-1.4987183,0-3.1574707,0-4.6437378-.6105347Z"/>
            <path class="cls-1" d="M212.1005434,284.82901h.2897949c4.8671875,0,9.6928711-1.6074219,13.5878906-4.5263672l3.5415039-2.6542969c5.2523804-3.937439,11.7606201-6.1064453,18.3255005-6.1064453v-4.2759399c0-1.4987183,0-3.1574707.6105347-4.6437378.6091919-1.4707031,1.7789307-2.6404419,3.2496338-3.2496338,1.4862671-.6105347,3.1450195-.6105347,4.6437378-.6105347h33.0536499c-12.6672363-19.263855-34.4628296-31.9904175-59.2416992-31.9904175-26.0220947,0-48.7545166,14.034668-61.0776367,34.9385986h16.237793c13.6077271,0,24.8665771,10.0419312,26.7792969,23.1187744Z"/>
            <path class="cls-2" d="M251.6501649,313.5127258c-1.4707031.6091919-2.6404419,1.7788696-3.2496338,3.2496338-.6105347,1.4862061-.6105347,3.1450195-.6105347,4.6437378v16.4522705c0,1.4987183,0,3.1575317.6105347,4.6437378.6091919,1.4707642,1.7789307,2.6404419,3.2496338,3.2496338,1.4862671.6105957,3.1450806.6105957,4.6437988.6105957h25.2979126c8.6948853-9.1746826,14.9590454-20.6660767,17.7688599-33.4602051h-43.0667725c-1.4987183,0-3.1575317,0-4.6437988.6105957Z"/>
            <path class="cls-2" d="M256.3491395,258.7620544c-1.4987183,0-3.1574707,0-4.6437378.6105347-1.4707031.6091919-2.6404419,1.7789307-3.2496338,3.2496338-.6105347,1.4862671-.6105347,3.1450195-.6105347,4.6437378v4.2759399c-6.5648804,0-13.0731201,2.1690063-18.3255005,6.1064453l-3.5415039,2.6542969c-3.8950195,2.9189453-8.7207031,4.5263672-13.5878906,4.5263672h-.2897949c-1.9127197-13.0768433-13.1715698-23.1187744-26.7792969-23.1187744h-16.237793c-1.9369507,3.2857056-3.6123047,6.741272-5.0064697,10.3391113h21.2442627c9.2398682,0,16.7302246,7.4903564,16.7302246,16.7301636s-7.4903564,16.7301636-16.7302246,16.7301636h-25.5808716c.3904419,3.531189,1.0379028,6.9838257,1.9277344,10.3391113h23.6531372c13.6079102,0,24.8668823-10.0422974,26.7793579-23.1193848h.2897339c4.7785034,0,9.520874-1.1616821,13.7773438-3.305542,1.5908813-.8012695,3.1190796-1.7286987,4.5483398-2.7999268l3.3520508-2.5128784.1899414-.142395c3.8944702-2.9188843,8.7196045-4.5263672,13.5872192-4.5263672v4.276001c0,1.4987183,0,3.1574707.6105347,4.6437378.6091919,1.4707031,1.7789307,2.6404419,3.2496338,3.2496338,1.4862671.6105347,3.1450195.6105347,4.6437378.6105347h44.451416c-.9303589-12.2970581-4.989624-23.7148438-11.3977661-33.460144h-33.0536499Z"/>
          </g>
          <path class="cls-6" d="M226.167682,289.4238586v22.6893311c0,3.2451172,0,7.2851562,1.5585938,11.078125,1.6430664,3.9677734,4.8623047,7.1875,8.8432617,8.8369141,3.7827148,1.5546875,7.8217773,1.5546875,11.0673828,1.5546875h.1530762v-7.9003906h-.1530762c-2.8144531,0-5.7250977,0-8.0537109-.9570312-2.0488281-.8486328-3.7104492-2.5097656-4.5537109-4.546875-.9614258-2.3408203-.9614258-5.2509766-.9614258-8.0654297v-28.0021362l-3.3520508,2.5128784c-1.4292603,1.071228-2.9574585,1.9986572-4.5483398,2.7999268Z"/>
        </g>
      </g>
    </g>
  </g>
</svg>