<?xml version="1.0" encoding="UTF-8"?>
<svg xmlns="http://www.w3.org/2000/svg" version="1.1" viewBox="0 0 841.8898315 595.2755737">
  <defs>
    <style>
      .cls-1 {
        fill: #fff;
      }

      .cls-2 {
        fill: #2080e0;
      }
    </style>
  </defs>
  <!-- Generator: Adobe Illustrator 28.7.10, SVG Export Plug-In . SVG Version: 1.2.0 Build 236)  -->
  <g>
    <g id="_レイヤー_1" data-name="レイヤー_1">
      <g>
        <path class="cls-1" d="M382.7862262,302.450811c0,13.2246943-10.6370169,23.8617111-24.1486602,23.8617111-13.1290446,0-24.1499441-10.3494258-24.1499441-23.8617111,0-13.2240523,10.6383007-23.8617111,24.1499441-23.8617111,12.8414535,0,24.1486602,9.966827,24.1486602,23.8617111ZM358.637566,318.2631827c9.0077622,0,14.9495986-6.4207268,14.9495986-15.8123717,0-9.5829443-6.1344196-15.8117298-15.0458902-15.8117298-8.8164629,0-14.8533069,6.5163765-14.8533069,15.8117298,0,9.4872946,6.0368441,15.8123717,14.9495986,15.8123717Z"/>
        <path class="cls-1" d="M429.8572216,301.3294868c0,12.8771302-8.7312792,21.9617255-21.2568658,21.9617255-6.0855444,0-11.8177728-2.8223928-14.552132-7.0556866h-.1760672v30.8696627h-7.9383859v-66.6786605h7.9383859v5.9975108h.1760672c3.175118-4.4985762,8.6438364-7.0562774,14.6419381-7.0562774,12.1710889,0,21.1670597,8.8199036,21.1670597,21.9617255ZM407.6313954,315.8828005c8.2905203,0,13.7592387-5.73341,13.7592387-14.5533137s-5.6459672-14.5527228-13.8478632-14.5527228c-8.0270104,0-13.6706143,5.7328192-13.6706143,14.5527228,0,8.6438364,5.4687184,14.5533137,13.7592387,14.5533137Z"/>
        <path class="cls-1" d="M477.1595491,303.1929015v2.3175578h-35.2278723c0,7.6016145,7.1389723,12.7925217,14.8318732,12.7925217,5.0996208,0,8.8082101-2.5951431,12.0522942-6.5819387l6.3043534,4.8207935c-4.728265,6.0255261-11.0326184,8.9920249-19.4682308,8.9920249-13.07197,0-22.6204075-9.0845534-22.6204075-23.0830497,0-12.9781995,9.3646227-23.0830497,22.7135569-23.0830497,12.9788205,0,21.4144329,8.6212902,21.4144329,23.8251401ZM468.2594316,298.8353712c-.2782063-8.2505555-4.9133219-12.7925217-12.7006142-12.7925217-8.8057261,0-13.6271406,7.508465-13.6271406,12.7925217h26.3277548Z"/>
        <path class="cls-1" d="M519.0059108,295.7763439v28.6453126h-8.3424629v-26.2352264c0-6.7669956-3.7073473-11.0313765-10.0117007-11.0313765-7.6953849,0-12.2373511,5.4697345-12.2373511,14.2760816v22.9905212h-8.3424629v-43.9410699h8.3424629v6.7669956h.1850569c2.3175578-4.9133219,8.0654986-7.8798208,14.4617594-7.8798208,9.8266438,0,15.9446984,6.4894103,15.9446984,16.4085825Z"/>
        <path class="cls-2" d="M553.0783498,259.508968c8.5287618,0,19.7451951,3.8936462,19.7451951,16.501111,0,6.7669956-3.9855536,12.0516732-11.4014902,14.369231v.1850569c8.4356123,1.0196758,14.1835532,7.6941429,14.1835532,15.8521699,0,12.6074648-10.1048501,18.7261403-24.3815527,18.7261403h-24.1021044v-65.6337091h25.9563991ZM549.8342656,286.2074575c7.0445809,0,11.3095828-3.2447051,11.3095828-8.2505555,0-5.7479408-4.2650019-8.4362333-12.2373511-8.4362333h-10.1036081v16.6867888h11.0313765ZM549.9261731,315.1309764c9.2702312,0,13.9984963-3.1521767,13.9984963-9.641587,0-6.6744671-4.4500588-9.2702312-13.3489343-9.2702312h-11.7728459v18.9118182h11.1232839Z"/>
        <path class="cls-2" d="M601.6364384,259.508968c8.4368543,0,23.7319907,2.4100862,23.7319907,18.8186688,0,13.72029-8.0642566,19.6532877-25.5862853,19.6532877h-8.9920249v27.1617527h-11.6796965v-65.6337091h22.5260161ZM598.3923543,287.9686027c6.859524,0,14.7399657-.7414695,14.7399657-9.2702312,0-6.211204-4.5432082-9.1777028-13.6271406-9.1777028h-8.7150606v18.447934h7.6022355Z"/>
        <path class="cls-2" d="M637.0414547,261.5438204l14.916426,23.4019756,14.7381229-23.4019756h13.6659113l-20.7226433,30.1900563,22.9556197,33.0482901h-14.291767l-16.7018497-26.7065653-16.6144932,26.7065653h-13.5761614l22.508067-33.0482901-21.0792494-30.1900563h14.2020171Z"/>
      </g>
    </g>
  </g>
</svg>